<svg id="Layer_1" data-name="Layer 1" xmlns="http://www.w3.org/2000/svg" xmlns:xlink="http://www.w3.org/1999/xlink" viewBox="0 0 16.47 16.47"><defs><style>.cls-1{fill:none;}.cls-2{clip-path:url(#clip-path);}.cls-3{fill:#fff;}</style><clipPath id="clip-path" transform="translate(0 0)"><rect class="cls-1" width="16.47" height="16.47"/></clipPath></defs><title>instagram</title><g class="cls-2"><path class="cls-3" d="M8.24,5.49A2.72,2.72,0,1,0,11,8.21,2.72,2.72,0,0,0,8.24,5.49m0,6.23a3.51,3.51,0,1,1,3.51-3.51,3.51,3.51,0,0,1-3.51,3.51" transform="translate(0 0)"/><path class="cls-3" d="M12,6.07a4.34,4.34,0,1,1-7.51,0H0v7.25a3.16,3.16,0,0,0,3.15,3.15H13.32a3.16,3.16,0,0,0,3.15-3.15V6.07Z" transform="translate(0 0)"/><path class="cls-3" d="M14.91,3.54a.61.61,0,0,1-.61.61H12.67a.61.61,0,0,1-.61-.61V1.91a.61.61,0,0,1,.61-.61H14.3a.61.61,0,0,1,.61.61ZM13.32,0H4V4.12H3.38V0H3.15L2.77,0V4.12H2.16v-4a3.13,3.13,0,0,0-.61.28V4.12H.93V.92A3.15,3.15,0,0,0,0,3.15v2.3H4.89a4.34,4.34,0,0,1,6.66,0h4.92V3.15A3.16,3.16,0,0,0,13.32,0" transform="translate(0 0)"/></g></svg>