<?xml version="1.0" encoding="utf-8"?>
<!-- Generator: Adobe Illustrator 20.0.0, SVG Export Plug-In . SVG Version: 6.00 Build 0)  -->
<svg version="1.1" id="Layer_1" xmlns="http://www.w3.org/2000/svg" xmlns:xlink="http://www.w3.org/1999/xlink" x="0px" y="0px"
	 viewBox="0 0 125.7 125.7" style="enable-background:new 0 0 125.7 125.7;" xml:space="preserve">
<path d="M76.4,79.9l-12-12l12-12V79.9z M49.3,79.9V55.8l12,12L49.3,79.9z M49.3,45.7l12,11.1l-4.1,3.8l-7.9-7.9V45.7z M67,62.1
	l-4.2,4.2l-4.2-4.2l4.2-3.9L67,62.1z M76.4,45.7v7.1l-7.9,7.9l-4.1-3.8L76.4,45.7z M78.6,50.5v-9.9L62.8,55.3L47.1,40.7v9.9l-10-10
	v42h2.2V45.8l7.8,7.8v31.5l15.8-15.8l15.8,15.8V53.6l7.9-7.8v36.8h2.2v-42L78.6,50.5z"/>
<path d="M3.5,62.8L62.8,3.5l59.3,59.3l-59.3,59.3L3.5,62.8z M62.8,0L0,62.8l62.8,62.8l62.8-62.8L62.8,0z"/>
</svg>
