<svg id="Layer_1" data-name="Layer 1" xmlns="http://www.w3.org/2000/svg" xmlns:xlink="http://www.w3.org/1999/xlink" viewBox="0 0 21.42 14.77"><defs><style>.cls-1{fill:none;}.cls-2{clip-path:url(#clip-path);}.cls-3{fill:#fff;}</style><clipPath id="clip-path" transform="translate(0 0)"><rect class="cls-1" width="21.42" height="14.77"/></clipPath></defs><title>twitter</title><g class="cls-2"><path class="cls-3" d="M21.42,6.81A5.2,5.2,0,0,1,19,6.57a2.6,2.6,0,0,0,2.33-1.39,3.83,3.83,0,0,1-2.52.28c0-.18-.08-.34-.12-.49-.57-2.08-2.51-3.76-4.54-3.56l.5-.18c.22-.08,1.54-.3,1.33-.76s-1.78.31-2.08.4C14.29.72,14.95.46,15,0a3.18,3.18,0,0,0-1.67.79,1.14,1.14,0,0,0,.32-.64C12,1.2,11.08,3.3,10.31,5.34A8,8,0,0,0,8.69,4,42.61,42.61,0,0,0,3.2,1.61,2.91,2.91,0,0,0,5,4.31a4.52,4.52,0,0,0-1.32.16c.18,1,.78,1.75,2.4,2.14a2,2,0,0,0-1.47.58A2.49,2.49,0,0,0,7.28,8.48c-1.64.71-.67,2,.67,1.83A5.68,5.68,0,0,1,0,10.52c5.39,7.36,17.12,4.35,18.86-2.74a3.25,3.25,0,0,0,2.56-1" transform="translate(0 0)"/></g></svg>